<svg width="21" height="21" viewBox="0 0 21 21" fill="none" xmlns="http://www.w3.org/2000/svg">
<path d="M14.4633 3.63533C15.5954 3.69792 16.6569 4.20544 17.4165 5.0473C18.1761 5.88915 18.5721 6.9971 18.5184 8.12969C18.5184 10.7757 16.2342 12.401 14.0421 14.3501C11.8785 16.2821 10.7131 17.338 10.3359 17.5818C9.925 17.3157 8.49005 16.0116 6.6296 14.3501C4.42807 12.3932 2.15333 10.7524 2.15333 8.12969C2.09955 6.9971 2.49561 5.88915 3.25518 5.0473C4.01475 4.20544 5.07627 3.69792 6.20841 3.63533C6.83558 3.61633 7.45694 3.76038 8.01177 4.05342C8.56659 4.34646 9.03588 4.77844 9.37376 5.30715C10.0973 6.3192 10.2178 6.82566 10.3384 6.82566C10.459 6.82566 10.5779 6.3192 11.2945 5.30457C11.6305 4.77341 12.0999 4.33971 12.656 4.0468C13.212 3.75388 13.8352 3.612 14.4633 3.63533ZM14.4633 1.9127C13.6811 1.88766 12.9034 2.03938 12.1881 2.35658C11.4727 2.67378 10.8381 3.14827 10.3315 3.74472C9.82541 3.15 9.19212 2.67661 8.47846 2.35951C7.7648 2.04241 6.98901 1.88971 6.20841 1.9127C4.61917 1.97484 3.11919 2.66375 2.03648 3.82878C0.95377 4.99381 0.376424 6.54016 0.430692 8.12969C0.430692 11.2391 2.62705 13.1486 4.7502 14.9944C4.99396 15.2063 5.24029 15.4199 5.48491 15.6378L6.36948 16.4285C7.33419 17.3465 8.34557 18.2141 9.3996 19.028C9.67848 19.2085 10.0036 19.3046 10.3359 19.3046C10.6681 19.3046 10.9932 19.2085 11.2721 19.028C12.3597 18.1893 13.4022 17.2937 14.3952 16.3449L15.1894 15.6352C15.4417 15.4113 15.6976 15.1882 15.9516 14.9686C17.962 13.2244 20.241 11.2477 20.241 8.12969C20.2953 6.54016 19.7179 4.99381 18.6352 3.82878C17.5525 2.66375 16.0525 1.97484 14.4633 1.9127Z" fill="#FF0014"/>
</svg>
