<svg width="23" height="23" viewBox="0 0 23 23" fill="none" xmlns="http://www.w3.org/2000/svg">
<path d="M12.672 12.664L14.163 8.835L10.333 10.325L12.672 12.664ZM11.5 0C9.22552 0 7.00211 0.674463 5.11095 1.9381C3.21978 3.20174 1.7458 4.99779 0.875391 7.09914C0.00498277 9.20049 -0.222756 11.5128 0.220974 13.7435C0.664704 15.9743 1.75997 18.0234 3.36828 19.6317C4.97658 21.24 7.02569 22.3353 9.25647 22.779C11.4872 23.2228 13.7995 22.995 15.9009 22.1246C18.0022 21.2542 19.7983 19.7802 21.0619 17.8891C22.3255 15.9979 23 13.7745 23 11.5C22.9966 8.45107 21.7839 5.528 19.6279 3.37207C17.472 1.21615 14.5489 0.00344079 11.5 0ZM16.85 7.443L14.372 13.812C14.3216 13.9412 14.2449 14.0585 14.1468 14.1564C14.0487 14.2544 13.9313 14.3309 13.802 14.381L7.44201 16.851C7.2612 16.9211 7.0639 16.9372 6.87414 16.8972C6.68437 16.8572 6.51032 16.7629 6.37319 16.6258C6.23606 16.4887 6.14176 16.3146 6.10178 16.1249C6.0618 15.9351 6.07786 15.7378 6.14801 15.557L8.62801 9.188C8.67838 9.05882 8.75506 8.94153 8.85319 8.84358C8.95132 8.74562 9.06874 8.66915 9.19801 8.619L15.557 6.149C15.7378 6.07885 15.9351 6.06279 16.1249 6.10277C16.3146 6.14275 16.4887 6.23705 16.6258 6.37418C16.763 6.51132 16.8573 6.68536 16.8972 6.87513C16.9372 7.0649 16.9202 7.2622 16.85 7.443Z" fill="black"/>
</svg>
